<svg id="Layer_1" data-name="Layer 1" xmlns="http://www.w3.org/2000/svg" viewBox="0 0 150 150"><defs><style>.cls-1{fill:#fff}</style></defs><path class="cls-1" d="M27.23 72.29l.3 8.73 3.68 1.23.08 2.21-18.43-6.26-.07-2.08 18-7.51.08 2.21zm-1.87.77l-9.62 4 9.87 3.31zM14.11 61.12l.66-2 15.39 5L33.42 54l1.93.62-3.92 12.11zM22.39 41.28l7.53-9.61 1.6 1.24-6.2 7.92 4.59 3.59 5.75-7.34 1.53 1.2-5.75 7.35 5 3.92 6.21-7.92 1.59 1.25-7.52 9.62zM40.81 33.75c-3-4.83-2.43-9.67 1.37-12 3.06-1.91 6.66-1.25 9.16 1.76l-1.6 1.46c-2.09-2.31-4.35-2.84-6.49-1.5-2.78 1.73-3 5.28-.61 9.18s5.72 5.22 8.52 3.48c2.27-1.42 2.74-3.8 1.25-6.83l2-.93c2 3.8 1.1 7.41-2.21 9.48-3.81 2.35-8.33.8-11.39-4.1zM76 12.32l2.21.31-.39 14.91h.06l4.24-9.9 2 .28 1.31 10.69h.05l3.74-14.41 2.21.31-4.93 17.68-2.44-.35-1.52-10h-.06L78.24 31l-2.45-.35zM98.83 17.21l1.91 1-3.7 7 7 3.71 3.7-6.95 1.91 1L101.07 39l-1.9-1 4-7.44-7-3.71-4 7.43-1.91-1zM120.48 35.57L110 45l3.18 3.54-1.51 1.35-7.82-8.7 1.51-1.36 3.2 3.56L119 34l-3.2-3.56 1.51-1.36 7.82 8.71-1.51 1.35zM130.41 51.49l-2.43-6 1.88-.76 5.65 14-1.88.76-2.42-6-15 6.06-.81-2zM137 66.51l.09 2.52-10.5 4.18v.05l10.76 3.46.08 2.53-18.19.6-.08-2.15 13.67-.46-10.41-3.4v-.83l10.17-4.06v-.06l-13.67.46-.07-2.18zM127.7 84.63c5.47 1.77 8.16 5.6 6.82 9.73s-5.76 5.64-11.23 3.87-8.16-5.6-6.82-9.73 5.77-5.64 11.23-3.87zM124 96.18c4.28 1.38 7.66.54 8.63-2.45s-1.28-5.66-5.55-7-7.67-.54-8.64 2.45 1.24 5.61 5.56 7zM127.76 108.51L123.5 114c-2.34 3-5.34 3.54-8 1.48a5 5 0 0 1-1.34-6.86l-8.36-1.46 1.55-2 8.2 1.5 2.39-3-5.83-4.66 1.33-1.7zm-11.06-.11c-1.66 2.1-1.62 3.95.15 5.33s3.5 1 5.17-1.17l2.82-3.6-5.32-4.17zM112.87 124.68l-10.37 6.47-1.07-1.72 8.54-5.32-3.09-5L99 124.1l-1-1.65 7.92-4.94-3.37-5.41-8.55 5.33-1.08-1.72 10.37-6.47z"/></svg>